<?xml version="1.0" encoding="utf-8"?>
<!-- Generator: Adobe Illustrator 24.2.1, SVG Export Plug-In . SVG Version: 6.00 Build 0)  -->
<svg version="1.1"
	 id="svg3476" inkscape:version="0.91 r13725" sodipodi:docname="CSS3.svg" xmlns:cc="http://creativecommons.org/ns#" xmlns:dc="http://purl.org/dc/elements/1.1/" xmlns:inkscape="http://www.inkscape.org/namespaces/inkscape" xmlns:rdf="http://www.w3.org/1999/02/22-rdf-syntax-ns#" xmlns:sodipodi="http://sodipodi.sourceforge.net/DTD/sodipodi-0.dtd" xmlns:svg="http://www.w3.org/2000/svg"
	 xmlns="http://www.w3.org/2000/svg" xmlns:xlink="http://www.w3.org/1999/xlink" x="0px" y="0px" viewBox="0 0 290.2 335.6"
	 style="enable-background:new 0 0 290.2 335.6;" xml:space="preserve">
<style type="text/css">
	.st0{fill:#264DE4;}
	.st1{fill:#2965F1;}
	.st2{fill:#EBEBEB;}
	.st3{fill:#FFFFFF;}
</style>
<sodipodi:namedview  bordercolor="#666666" borderopacity="1.0" fit-margin-bottom="0" fit-margin-left="0" fit-margin-right="0" fit-margin-top="0" id="base" inkscape:current-layer="layer1" inkscape:cx="181.367" inkscape:cy="256" inkscape:document-units="px" inkscape:pageopacity="0.0" inkscape:pageshadow="2" inkscape:window-height="704" inkscape:window-maximized="1" inkscape:window-width="1366" inkscape:window-x="0" inkscape:window-y="27" inkscape:zoom="0.35" pagecolor="#ffffff" showgrid="false">
	</sodipodi:namedview>
<g id="layer1" transform="translate(-193.633,-276.3622)" inkscape:groupmode="layer" inkscape:label="Calque 1">
	<g id="g3013" transform="translate(119,276.3622)">
		<polygon id="polygon2989" class="st0" points="364.8,6.5 338.4,302.7 219.5,335.6 101,302.7 74.6,6.5 		"/>
		<polygon id="polygon2991" class="st1" points="315.8,283.8 338.3,30.7 219.7,30.7 219.7,310.4 		"/>
		<polygon id="polygon2993" class="st2" points="135.2,140.6 138.4,176.9 219.7,176.9 219.7,140.6 		"/>
		<polygon id="polygon2995" class="st2" points="219.7,67 219.6,67 128.6,67 131.9,103.4 219.7,103.4 		"/>
		<polygon id="polygon2997" class="st2" points="219.7,272.7 219.7,234.9 219.6,235 179.1,224 176.5,195.1 156.9,195.1 140.1,195.1 
			145.1,252.1 219.6,272.8 		"/>
		<polygon id="polygon3005" class="st3" points="264.3,176.9 260.1,224 219.6,235 219.6,272.7 294.1,252.1 294.6,246 303.2,150.3 
			304,140.6 310.6,67 219.6,67 219.6,103.4 270.8,103.4 267.5,140.6 219.6,140.6 219.6,176.9 		"/>
	</g>
</g>
</svg>
